<?xml version="1.0" encoding="UTF-8"?>
<svg version="1.1" viewBox="0 0 1000 376" xmlns="http://www.w3.org/2000/svg">
<g transform="translate(-.60605 .50125)">
<svg width="1e3" height="376" data-background-color="#ffffff" viewBox="0 0 396 149" xmlns="http://www.w3.org/2000/svg" xmlns:xlink="http://www.w3.org/1999/xlink">
<g transform="translate(.24 -.19863)">
<svg width="395.52" height="149.4" viewBox="0 0 395.52 149.3972634751178">
<svg width="395.52" height="149.4" viewBox="0 0 686.6242854287689 259.35424069229435">
<rect class="rect-o-0" x="264.03" width="7.4849" height="259.35" rx="1%" fill="#8b3c7f" stroke="transparent" stroke-width="0" data-fill-palette-color="primary" data-palette-color="#8b3c7f"/>
<g transform="translate(291.1 .64516)">
<svg width="395.52" height="258.06" viewBox="0 0 395.52 258.0639210868601">
<svg width="395.52" height="258.06" viewBox="0 0 395.52 258.0639210868601">
<svg width="395.52" height="179.63" viewBox="0 0 395.52 179.63232363585357">
<g>
<svg width="395.52" height="179.63" data-palette-color="#8b3c7f" viewBox="1.1200003623962402 -36.040000915527344 176.49000549316406 76.05000305175781">
<svg/>
<svg/>
<g class="undefined-text-0" fill="#8b3c7f" font-family="none" font-size="none" font-weight="none" stroke-dasharray="" stroke-miterlimit="10" text-anchor="none" data-fill-palette-color="primary">
<path d="m15.26 0h-7.57l0.05-5.05h7.52c2.18 0 4-0.473 5.46-1.42 1.467-0.947 2.577-2.3 3.33-4.06 0.747-1.767 1.12-3.88 1.12-6.34v-1.86c0-2.52-0.37-4.65-1.11-6.39s-1.837-3.067-3.29-3.98c-1.447-0.913-3.21-1.37-5.29-1.37h-7.94v-5.08h7.94c3.173 0 5.96 0.7 8.36 2.1s4.277 3.363 5.63 5.89c1.347 2.52 2.02 5.48 2.02 8.88v1.81c0 3.42-0.673 6.39-2.02 8.91-1.353 2.527-3.247 4.483-5.68 5.87-2.433 1.393-5.277 2.09-8.53 2.09zm-4.06-35.55v35.55h-6.3v-35.55zm40.34 5.06-10.55 30.49h-6.62l13.38-35.55h4.2zm8.74 30.49-10.58-30.49-0.46-5.06h4.22l13.43 35.55zm-0.42-13.21v5.08h-19.36v-5.08zm10.96-22.34h12.62c2.72 0 5.04 0.407 6.96 1.22s3.39 2.02 4.41 3.62c1.02 1.593 1.53 3.553 1.53 5.88 0 1.793-0.327 3.363-0.98 4.71-0.653 1.353-1.577 2.49-2.77 3.41-1.2 0.92-2.613 1.63-4.24 2.13l-1.9 0.98h-11.26l-0.05-5.05h8.35c1.453 0 2.663-0.253 3.63-0.76s1.69-1.197 2.17-2.07c0.48-0.88 0.72-1.883 0.72-3.01 0-1.82-0.523-3.273-1.57-4.36-1.053-1.08-2.72-1.62-5-1.62h-6.32v30.47h-6.3zm20.19 35.55-8.3-15.94 6.62-0.03 8.42 15.65v0.32zm32.18-11.62h6.3c-0.193 2.327-0.85 4.407-1.97 6.24-1.113 1.827-2.67 3.263-4.67 4.31-2 1.04-4.45 1.56-7.35 1.56-2.927 0-5.47-0.687-7.63-2.06-2.153-1.38-3.813-3.33-4.98-5.85-1.167-2.527-1.75-5.507-1.75-8.94v-2.81c0-3.447 0.597-6.427 1.79-8.94 1.187-2.513 2.873-4.463 5.06-5.85 2.193-1.387 4.777-2.08 7.75-2.08 2.853 0 5.26 0.527 7.22 1.58 1.96 1.047 3.48 2.497 4.56 4.35 1.087 1.847 1.743 3.967 1.97 6.36h-6.27c-0.247-2.267-0.92-4.027-2.02-5.28s-2.92-1.88-5.46-1.88c-1.833 0-3.357 0.453-4.57 1.36-1.213 0.9-2.13 2.217-2.75 3.95s-0.93 3.863-0.93 6.39v2.85c0 2.413 0.277 4.493 0.83 6.24s1.417 3.097 2.59 4.05 2.703 1.43 4.59 1.43c1.727 0 3.123-0.267 4.19-0.8 1.067-0.54 1.877-1.327 2.43-2.36s0.91-2.307 1.07-3.82zm18.43-23.93v35.55h-6.27v-35.55zm35.99 16.87v1.83c0 3.6-0.62 6.693-1.86 9.28-1.233 2.587-2.953 4.577-5.16 5.97s-4.79 2.09-7.75 2.09c-2.9 0-5.467-0.697-7.7-2.09-2.24-1.393-3.99-3.383-5.25-5.97s-1.89-5.68-1.89-9.28v-1.83c0-3.593 0.627-6.69 1.88-9.29 1.253-2.593 2.993-4.587 5.22-5.98s4.79-2.09 7.69-2.09c2.96 0 5.547 0.697 7.76 2.09s3.943 3.387 5.19 5.98c1.247 2.6 1.87 5.697 1.87 9.29zm-6.32 1.83v-1.88c0-2.62-0.333-4.827-1-6.62-0.673-1.8-1.643-3.16-2.91-4.08s-2.797-1.38-4.59-1.38c-1.76 0-3.27 0.46-4.53 1.38s-2.227 2.28-2.9 4.08c-0.68 1.793-1.02 4-1.02 6.62v1.88c0 2.62 0.343 4.833 1.03 6.64 0.68 1.807 1.657 3.177 2.93 4.11 1.267 0.927 2.78 1.39 4.54 1.39 1.807 0 3.34-0.463 4.6-1.39 1.26-0.933 2.217-2.303 2.87-4.11s0.98-4.02 0.98-6.64z" style="mix-blend-mode:normal" data-fill-palette-color="primary" xmlns="http://www.w3.org/2000/svg"/>
<path d="m18.12 28.8v-24.83h6.29v24.83c0 2.36-0.503 4.373-1.51 6.04-1.007 1.673-2.39 2.953-4.15 3.84s-3.753 1.33-5.98 1.33c-2.26 0-4.267-0.387-6.02-1.16-1.747-0.773-3.123-1.953-4.13-3.54-1-1.587-1.5-3.593-1.5-6.02h6.3c0 2.033 0.493 3.487 1.48 4.36 0.987 0.867 2.277 1.3 3.87 1.3 1.06 0 1.987-0.24 2.78-0.72 0.8-0.48 1.427-1.173 1.88-2.08 0.46-0.913 0.69-2.03 0.69-3.35zm33.08-24.83h6.3v23.68c0 2.72-0.59 4.997-1.77 6.83s-2.78 3.213-4.8 4.14-4.273 1.39-6.76 1.39c-2.56 0-4.843-0.463-6.85-1.39-2.013-0.927-3.593-2.307-4.74-4.14s-1.72-4.11-1.72-6.83v-23.68h6.27v23.68c0 1.68 0.287 3.057 0.86 4.13 0.567 1.073 1.38 1.87 2.44 2.39s2.307 0.78 3.74 0.78c1.46 0 2.71-0.26 3.75-0.78 1.047-0.52 1.853-1.317 2.42-2.39 0.573-1.073 0.86-2.45 0.86-4.13zm41.16 0v35.55h-6.32l-15.68-25.05v25.05h-6.3v-35.55h6.3l15.72 25.1v-25.1zm13.87 0v35.55h-6.28v-35.55zm35.98 16.87v1.83c0 3.6-0.617 6.693-1.85 9.28-1.24 2.587-2.963 4.577-5.17 5.97s-4.79 2.09-7.75 2.09c-2.893 0-5.46-0.697-7.7-2.09s-3.99-3.383-5.25-5.97-1.89-5.68-1.89-9.28v-1.83c0-3.593 0.627-6.69 1.88-9.29 1.253-2.593 2.993-4.587 5.22-5.98 2.233-1.393 4.797-2.09 7.69-2.09 2.967 0 5.557 0.697 7.77 2.09s3.94 3.387 5.18 5.98c1.247 2.6 1.87 5.697 1.87 9.29zm-6.32 1.83v-1.88c0-2.62-0.333-4.827-1-6.62-0.667-1.8-1.637-3.16-2.91-4.08-1.267-0.92-2.797-1.38-4.59-1.38-1.753 0-3.263 0.46-4.53 1.38-1.26 0.92-2.227 2.28-2.9 4.08-0.673 1.793-1.01 4-1.01 6.62v1.88c0 2.62 0.34 4.833 1.02 6.64 0.687 1.807 1.663 3.177 2.93 4.11 1.267 0.927 2.78 1.39 4.54 1.39 1.807 0 3.34-0.463 4.6-1.39 1.267-0.933 2.223-2.303 2.87-4.11 0.653-1.807 0.98-4.02 0.98-6.64zm12.35-18.7h12.62c2.72 0 5.04 0.407 6.96 1.22s3.39 2.02 4.41 3.62c1.013 1.593 1.52 3.553 1.52 5.88 0 1.793-0.323 3.363-0.97 4.71-0.653 1.353-1.577 2.49-2.77 3.41-1.2 0.92-2.613 1.63-4.24 2.13l-1.9 0.98h-11.26l-0.05-5.05h8.35c1.453 0 2.663-0.253 3.63-0.76s1.69-1.197 2.17-2.07c0.48-0.88 0.72-1.883 0.72-3.01 0-1.82-0.523-3.273-1.57-4.36-1.053-1.08-2.72-1.62-5-1.62h-6.32v30.47h-6.3zm20.19 35.55-8.3-15.94 6.62-0.03 8.42 15.65v0.32z" style="mix-blend-mode:normal" data-fill-palette-color="primary" xmlns="http://www.w3.org/2000/svg"/>
</g>
</svg>
</g>
</svg>
<g transform="translate(163.31 199.23)">
<svg width="232.21" height="58.838" viewBox="0 0 232.209792 58.83759013414298">
<g>
<svg width="232.21" height="58.838" data-palette-color="#8b3c7f" viewBox="0.8799999952316284 -34.08000183105469 176.87998962402344 44.81999969482422">
<path class="undefined-text-1" d="m13.04 10.74h-11.82l-0.15-1.9 3.03-0.78q0-0.25 0.05-0.91t0.07-1.73q0.03-1.07 0.05-2.54 0.03-1.46 0.03-3.32l0.09-11.28q0-1.46-0.09-2.88-0.1-1.42-0.3-2.39l-3.12-0.69v-1.8l7.23-1.96 1.02 0.79-0.34 2.78 0.15 0.05q1.31-1.76 2.97-2.74 1.66-0.97 3.62-0.97 2.59 0 4.64 1.29t3.27 3.61 1.22 5.4q0 3.22-1.47 5.83-1.46 2.62-4.02 4.18-2.57 1.56-5.94 1.56-1.02 0-2.17-0.19-1.15-0.2-2.08-0.59v3.47q0 1.8 0.08 3.17 0.07 1.37 0.12 1.86l4 0.68-0.14 2zm0.34-13.13q1.85 0 3.22-0.88t2.15-2.61q0.78-1.74 0.83-4.23 0.05-2.39-0.76-4.12-0.8-1.74-2.12-2.66-1.32-0.93-2.98-0.93-1.42 0-2.61 0.63-1.2 0.64-2.13 1.86v11.57q0.83 0.63 2.01 1 1.17 0.37 2.39 0.37zm25.97 2.78q-3.22 0-5.69-1.39-2.46-1.39-3.83-3.86-1.37-2.46-1.37-5.64 0-3.37 1.54-5.83 1.54-2.47 4.06-3.84 2.51-1.36 5.49-1.36 3.07 0 5.39 1.36 2.32 1.37 3.64 3.79t1.32 5.59q0 3.12-1.42 5.66-1.41 2.54-3.8 4.03-2.4 1.49-5.33 1.49zm0.49-2.54q1.51 0 2.61-0.93 1.1-0.92 1.71-2.63t0.61-3.91q0-4.25-1.61-6.86t-4.25-2.61q-2.34 0-3.78 2.1t-1.44 5.56q0 2.69 0.78 4.79t2.2 3.3q1.41 1.19 3.17 1.19zm25.49 2.15h-12.16l-0.15-1.9 3.03-0.79q0.05-0.19 0.1-0.83 0.05-0.63 0.1-1.7 0.04-1.08 0.04-2.54v-3.76q0-1.61-0.09-3.06-0.1-1.44-0.3-2.41l-3.12-0.69v-1.8l7.18-1.96 0.87 0.74-0.19 4 0.15 0.05q1.46-2.78 2.93-3.76 1.46-0.98 2.88-0.98 1.22 0 2.05 0.61t0.83 1.88-0.91 1.96q-0.9 0.68-2.17 0.68-0.98 0-1.83-0.37-0.85-0.36-1.68-1.19l0.97 0.24q-0.78 0.59-1.58 1.56-0.81 0.98-1.45 2.35l0.05 4.34q0.05 1.42 0.1 2.76 0.05 1.35 0.1 2.37 0.05 1.03 0.1 1.51l4.24 0.69-0.09 2zm21.23-4.64 0.98 1.27q-0.83 1.76-2.56 2.76-1.74 1-3.64 1-3.12 0-5.13-1.85-2-1.86-2-5.57l0.15-11.38h-3.42v-1.22l6.93-6h1.18l-0.1 6-0.1 11.92q0 2.34 1.05 3.46t3 1.12q1.08 0 2-0.41 0.93-0.42 1.66-1.1zm-0.43-13.77h-9.33v-2.68h9.33v2.68zm14.45 16.46-0.15 1.95h-11.67l-0.1-1.9 3.03-0.79q0-0.53 0.02-1.14 0.03-0.61 0.03-1.49t0-2.13q0-1.24 0-3.05l-0.05-7.91v-5.22q0-3.13 1.07-5.5 1.08-2.36 2.96-3.66 1.88-1.29 4.32-1.29 2.1 0 3.54 0.9t1.44 2.32q0 0.78-0.51 1.25-0.52 0.46-1.35 0.46-1.27 0-2.49-1.12l-2.39-2.3 1.47 0.29q-1.66 0-2.59 1.81t-0.93 5.23v4.2l0.1 2.63 0.05 7.62q0 2.25 0.07 4.49 0.07 2.25 0.12 3.61l4.01 0.74zm1.02-16.41h-13.43v-1.85l3.52-0.88 3.47 0.05h6.44v2.68zm13.38 18.75q-3.22 0-5.69-1.39t-3.83-3.86q-1.37-2.46-1.37-5.64 0-3.37 1.54-5.83 1.54-2.47 4.05-3.84 2.51-1.36 5.49-1.36 3.08 0 5.4 1.36 2.32 1.37 3.64 3.79 1.31 2.42 1.31 5.59 0 3.12-1.41 5.66-1.42 2.54-3.81 4.03t-5.32 1.49zm0.49-2.54q1.51 0 2.61-0.93 1.1-0.92 1.71-2.63t0.61-3.91q0-4.25-1.61-6.86t-4.25-2.61q-2.35 0-3.79 2.1t-1.44 5.56q0 2.69 0.78 4.79 0.79 2.1 2.2 3.3 1.42 1.19 3.18 1.19zm24.36 2.15h-11.23l-0.15-1.95 3.18-0.74q0.09-0.48 0.14-1.66 0.05-1.17 0.08-3.02 0.02-1.86 0.02-4.2v-6.15q0-1.76-0.02-3.62-0.03-1.85-0.05-3.54-0.03-1.68-0.05-2.93-0.03-1.24-0.08-1.78l-3.61-0.49-0.1-1.71 7.77-2.15 1.07 0.74q-0.05 2.05-0.12 4.05t-0.1 4.49q-0.02 2.49-0.02 5.96l-0.05 7.66q0 3.08 0.07 5.45t0.17 2.9l3.18 0.74-0.1 1.95zm13.62 0h-11.38l-0.14-1.95 3.27-0.74q0.05-0.19 0.1-0.75 0.04-0.56 0.07-1.61 0.02-1.05 0.02-2.71l0.05-3.47q0-1.81-0.1-3.3-0.09-1.49-0.29-2.46l-3.27-0.69v-1.8l7.62-1.96 0.92 0.74q-0.14 1.51-0.22 3.02-0.07 1.52-0.07 3.52v6.15q0 2 0.07 3.47 0.08 1.46 0.22 1.85l3.28 0.74-0.15 1.95zm-5.66-26.46q-1.47 0-2.42-0.93t-0.95-2.3q0-1.32 0.95-2.27t2.42-0.95q1.46 0 2.36 0.95 0.91 0.95 0.91 2.27 0 1.37-0.91 2.3-0.9 0.93-2.36 0.93zm19.43 26.85q-3.23 0-5.69-1.39-2.47-1.39-3.84-3.86-1.36-2.46-1.36-5.64 0-3.37 1.54-5.83 1.53-2.47 4.05-3.84 2.51-1.36 5.49-1.36 3.08 0 5.4 1.36 2.32 1.37 3.63 3.79 1.32 2.42 1.32 5.59 0 3.12-1.41 5.66-1.42 2.54-3.81 4.03t-5.32 1.49zm0.48-2.54q1.52 0 2.62-0.93 1.1-0.92 1.71-2.63t0.61-3.91q0-4.25-1.62-6.86-1.61-2.61-4.24-2.61-2.35 0-3.79 2.1t-1.44 5.56q0 2.69 0.78 4.79t2.2 3.3q1.42 1.19 3.17 1.19z" fill="#8b3c7f" data-fill-palette-color="secondary"/>
</svg>
</g>
</svg>
</g>
</svg>
</svg>
</g>
<g transform="translate(0 7.4614)">
<svg width="244.43" height="244.43" viewBox="0 0 244.43135999999996 244.43135999999996">
<svg class="icon-icon-0" width="244.43" height="244.43" enable-background="new 0 0 100 100" fill="#8b3c7f" data-fill-palette-color="accent" version="1.1" viewBox="0 0 100 100" xml:space="preserve" xmlns="http://www.w3.org/2000/svg" xmlns:xlink="http://www.w3.org/1999/xlink"><path d="m70 92.5h-5l-6.759-6.76-0.019-0.018c-0.451-0.445-1.07-0.722-1.755-0.722h-12.938c-0.675 0-1.285 0.271-1.734 0.705l-6.795 6.795h-5c-1.381 0-2.5 0.988-2.5 2.206v3.088c0 1.218 1.119 2.206 2.5 2.206h40c1.381 0 2.5-0.988 2.5-2.206v-3.088c0-1.218-1.119-2.206-2.5-2.206z" data-fill-palette-color="accent"/><g data-fill-palette-color="accent"><path d="m84.889 66.999c-1.688 0-3.055 1.366-3.055 3.056 0-1.688 1.367-3.055 3.055-3.056 1.688 1e-3 3.055 1.368 3.055 3.056-1e-3 -1.69-1.367-3.056-3.055-3.056z" fill="none"/><path d="m81.834 70.055c0 1.688 1.367 3.055 3.055 3.055-1.688-1e-3 -3.055-1.368-3.055-3.055z" fill="none"/><path d="m84.889 73.109c1.688 0 3.055-1.366 3.055-3.055-1e-3 1.688-1.368 3.055-3.055 3.055z" fill="none"/><path d="m90 0h-80c-5.523 0-10 4.477-10 10v60c0 5.521 4.477 10 10 10h80c5.523 0 10-4.479 10-10v-60c0-5.523-4.477-10-10-10zm-5.111 73.109c-1.688 0-3.055-1.366-3.055-3.055s1.367-3.056 3.055-3.056 3.055 1.366 3.055 3.056c-1e-3 1.689-1.367 3.055-3.055 3.055zm5.111-13.109h-80v-50h80v50z" fill="#8b3c7f" data-fill-palette-color="accent"/></g></svg>
</svg>
</g>
</svg>
</svg>
<rect width="395.52" height="149.4" fill="none" visibility="hidden"/>
</g>
</svg>
</g>
</svg>
